Coordinates
version=1
nRows=5
nColumns=63
inDegrees=yes

Units are S.I. units (second, meters, Newtons, ...)
If the header above contains a line with 'inDegrees', this indicates whether rotational values are in degrees (yes) or radians (no).

endheader
time	pelvis_tilt	pelvis_list	pelvis_rotation	pelvis_tx	pelvis_ty	pelvis_tz	hip_flexion_r	hip_adduction_r	hip_rotation_r	knee_angle_r	knee_angle_r_beta	ankle_angle_r	subtalar_angle_r	mtp_angle_r	hip_flexion_l	hip_adduction_l	hip_rotation_l	knee_angle_l	knee_angle_l_beta	ankle_angle_l	subtalar_angle_l	mtp_angle_l	L5_S1_Flex_Ext	L5_S1_Lat_Bending	L5_S1_axial_rotation	L4_L5_Flex_Ext	L4_L5_Lat_Bending	L4_L5_axial_rotation	L3_L4_Flex_Ext	L3_L4_Lat_Bending	L3_L4_axial_rotation	L2_L3_Flex_Ext	L2_L3_Lat_Bending	L2_L3_axial_rotation	L1_L2_Flex_Ext	L1_L2_Lat_Bending	L1_L2_axial_rotation	L1_T12_Flex_Ext	L1_T12_Lat_Bending	L1_T12_axial_rotation	Abs_r3	Abs_r2	Abs_r1	Abs_t1	Abs_t2	neck_flexion	neck_bending	neck_rotation	arm_flex_r	arm_add_r	arm_rot_r	elbow_flex_r	pro_sup_r	wrist_flex_r	wrist_dev_r	arm_flex_l	arm_add_l	arm_rot_l	elbow_flex_l	pro_sup_l	wrist_flex_l	wrist_dev_l
      4.37288136	     -4.06050744	     -6.05208034	     99.70164062	      0.23437818	      0.73166393	      0.75722373	     22.01122207	     -3.19374585	     -1.55146102	     26.41638515	      0.46105290	     29.10688703	    -11.27677666	      0.00000000	     17.31159066	      2.15876982	     -3.37407474	     14.39984218	      0.25132466	     28.69015433	     10.32287657	      0.00000000	     -0.25077061	      0.33432366	      1.90468784	     -0.46570610	      0.44465047	      2.02373083	     -0.41199104	      0.81287455	      2.02373083	     -0.28660573	      0.81287455	      1.66660186	     -0.23286559	      0.68175281	      1.54755887	     -0.14329033	      0.51786735	      1.42851588	     -1.79122939	      3.78193614	     10.59330235	      0.00000000	      0.00000000	     -3.80481821	     -1.90636723	    -20.43308504	    -25.03823792	    -37.14819514	     12.80222146	     89.56658974	     85.13705647	      1.33698239	      7.86584746	     63.19058500	     -4.46428124	     32.62266309	    107.63741646	     88.35886519	     -6.68406149	     -4.42452469
      4.38983051	     -4.09680875	     -6.25358126	     99.20126180	      0.23558868	      0.73287153	      0.75616953	     21.93569109	     -3.08248621	     -1.31414375	     25.96797481	      0.45322666	     28.82763195	    -10.98196667	      0.00000000	     16.98073267	      2.01897146	     -4.22281568	     13.53246294	      0.23618603	     28.15791399	     11.03465557	      0.00000000	     -0.22322614	      0.32551742	      2.01831089	     -0.41455326	      0.43293816	      2.14445533	     -0.36673822	      0.79146305	      2.14445533	     -0.25512515	      0.79146305	      1.76602203	     -0.20728779	      0.66379512	      1.63987760	     -0.12755141	      0.50422648	      1.51373317	     -1.59448196	      3.68231813	     11.22523970	      0.00000000	      0.00000000	     -4.01908307	     -1.44976915	    -19.94796515	    -29.53503045	    -36.43710055	      6.36325711	     96.79307249	     87.67480829	      2.33094960	      7.67257735	     64.66806824	     -3.25450414	     31.91347455	     99.99735474	     88.07406848	     -7.49979957	     -2.15349717
      4.40677966	     -4.04244475	     -6.27941374	     98.59679354	      0.23719655	      0.73409733	      0.75584018	     21.78540579	     -2.80984852	     -1.03311682	     25.56401586	      0.44617625	     28.53884172	    -10.79935899	      0.00000000	     16.68789982	      1.71956245	     -5.04335047	     13.09666439	      0.22857991	     27.62314522	     11.47814463	      0.00000000	     -0.21776486	      0.33121685	      2.30773489	     -0.40441112	      0.44051841	      2.45196832	     -0.35776589	      0.80532065	      2.45196832	     -0.24888346	      0.80532065	      2.01926803	     -0.20221645	      0.67541740	      1.87503460	     -0.12443084	      0.51305490	      1.73080117	     -1.55547261	      3.74679124	     12.83492914	      0.00000000	      0.00000000	     -4.45575440	     -1.05606700	    -20.37544325	    -32.66896133	    -35.02760487	      0.00822632	    103.71149053	     88.18889757	      2.88900114	      7.94237570	     65.35333854	     -1.15201995	     31.41400916	     91.67661953	     87.64890586	     -8.66785900	      2.92970028
      4.42372881	     -4.09578489	     -6.29636401	     97.88739648	      0.23943225	      0.73481089	      0.75575424	     21.69982418	     -2.55395547	     -0.55456166	     25.27596108	      0.44114874	     28.23988292	    -10.90253699	      0.00000000	     16.53918210	      1.48071506	     -5.81438533	     13.04324310	      0.22764754	     27.18632659	     11.59527285	      0.00000000	     -0.22099050	      0.31429662	      2.63069517	     -0.41040145	      0.41801451	      2.79511362	     -0.36306529	      0.76418081	      2.79511362	     -0.25257004	      0.76418081	      2.30185828	     -0.20521177	      0.64091368	      2.13743983	     -0.12627397	      0.48684547	      1.97302138	     -1.57851301	      3.55538628	     14.63113735	      0.00000000	      0.00000000	     -4.76386603	     -0.50501966	    -21.15657637	    -33.55613441	    -33.36079090	     -5.31996721	    110.34685515	     88.12026002	      2.33575880	      8.81281891	     65.50613877	      0.79941433	     31.33309095	     83.88544227	     87.26680887	     -9.70203458	      9.18441464
      4.44067797	     -4.24436688	     -6.37798563	     97.16455791	      0.24209185	      0.73484382	      0.75570999	     21.75777803	     -2.35217896	      0.03426160	     25.18795628	      0.43961277	     27.85681344	    -11.21812253	      0.00000000	     16.64667785	      1.31748760	     -6.39423400	     13.42138041	      0.23424728	     26.97620428	     11.36874955	      0.00000000	     -0.22369868	      0.27791695	      2.89963994	     -0.41543082	      0.36962955	      3.08086743	     -0.36751456	      0.67572728	      3.08086743	     -0.25566522	      0.67572728	      2.53718495	     -0.20772659	      0.56672825	      2.35595745	     -0.12782142	      0.43049336	      2.17472995	     -1.59785729	      3.14385215	     16.12692744	      0.00000000	      0.00000000	     -4.94447387	     -0.03903515	    -21.94758701	    -31.90334995	    -31.76472372	     -9.54394390	    116.75383462	     87.46485575	      0.25273240	     10.74159735	     64.65732717	      1.61508176	     31.93358909	     77.79092187	     87.07326624	    -10.22089351	     13.69133306
